<svg xmlns="http://www.w3.org/2000/svg" xmlns:xlink="http://www.w3.org/1999/xlink" width="40" zoomAndPan="magnify" viewBox="0 0 30 30.000001" height="40" preserveAspectRatio="xMidYMid meet" version="1.0"><path stroke-linecap="round" transform="matrix(0.967742, 0, 0, 0.967742, 3.387096, 2.903228)" fill="none" stroke-linejoin="round" d="M 19.378645 14.380987 C 19.7944 14.792705 20.00026 15.293226 20.00026 15.878513 C 20.00026 16.161065 19.947786 16.431507 19.838801 16.689841 C 19.729817 16.95221 19.576431 17.182288 19.378645 17.380075 C 19.180859 17.577861 18.95078 17.731247 18.692447 17.840231 C 18.430077 17.945179 18.159635 18.001689 17.881119 18.001689 L 6.11888 18.001689 C 5.840365 18.001689 5.569922 17.945179 5.307552 17.840231 C 5.049219 17.731247 4.819141 17.577861 4.621354 17.380075 C 4.423568 17.182288 4.270183 16.95221 4.161198 16.689841 C 4.052214 16.431507 3.99974 16.161065 3.99974 15.878513 C 3.99974 15.293226 4.205599 14.792705 4.621354 14.380987 L 6.001823 13.000518 L 6.001823 9.000388 C 6.001823 8.604815 6.038151 8.217315 6.114844 7.829815 C 6.191537 7.442315 6.304557 7.066925 6.457943 6.703643 C 6.607292 6.340362 6.792969 5.993227 7.010938 5.666274 C 7.228906 5.339321 7.479167 5.036586 7.757682 4.758071 C 8.036198 4.479555 8.338932 4.229295 8.665885 4.011326 C 8.992838 3.793357 9.339974 3.60768 9.703255 3.458331 C 10.066536 3.304946 10.441927 3.191925 10.829427 3.115232 C 11.216927 3.038539 11.604427 2.998175 12 2.998175 C 12.395573 2.998175 12.783073 3.038539 13.170572 3.115232 C 13.558072 3.191925 13.933463 3.304946 14.296744 3.458331 C 14.660026 3.60768 15.007161 3.793357 15.334114 4.011326 C 15.661067 4.229295 15.963801 4.479555 16.242317 4.758071 C 16.520833 5.036586 16.771093 5.339321 16.989062 5.666274 C 17.207031 5.993227 17.392708 6.340362 17.542057 6.703643 C 17.695442 7.066925 17.808463 7.442315 17.885155 7.829815 C 17.961848 8.217315 17.998176 8.604815 17.998176 9.000388 L 17.998176 13.000518 Z M 14.999088 18.001689 L 9.000911 18.001689 C 9.000911 18.397262 9.077604 18.780726 9.226953 19.148044 C 9.380338 19.515361 9.598307 19.838278 9.876823 20.12083 C 10.159375 20.403382 10.486328 20.621351 10.853646 20.7707 C 11.220963 20.924085 11.60039 21.000778 12 21.000778 C 12.399609 21.000778 12.779036 20.924085 13.146354 20.7707 C 13.513671 20.621351 13.840625 20.403382 14.123177 20.12083 C 14.401692 19.838278 14.619661 19.515361 14.773046 19.148044 C 14.922395 18.780726 14.999088 18.397262 14.999088 18.001689 Z M 14.999088 18.001689 " stroke="#000000" stroke-width="1.5" stroke-opacity="1" stroke-miterlimit="4"/></svg>